<svg xmlns="http://www.w3.org/2000/svg">
 <symbol id="icon-user-alt-fill" viewBox="0 0 24 24" ><circle cx="12" cy="8" r="4"/><path d="M5.33788 17.3206C5.99897 14.5269 8.77173 13 11.6426 13H12.3574C15.2283 13 18.001 14.5269 18.6621 17.3206C18.79 17.8611 18.8917 18.4268 18.9489 19.0016C19.0036 19.5512 18.5523 20 18 20H6C5.44772 20 4.99642 19.5512 5.0511 19.0016C5.1083 18.4268 5.20997 17.8611 5.33788 17.3206Z"/></symbol>
 <symbol id="icon-book-mark" viewBox="0 0 24 24" fill="none"><path d="M4 9C4 6.17157 4 4.75736 4.87868 3.87868C5.75736 3 7.17157 3 10 3H14C16.8284 3 18.2426 3 19.1213 3.87868C20 4.75736 20 6.17157 20 9V15.8276C20 18.5109 20 19.8525 19.1557 20.2629C18.3114 20.6733 17.2565 19.8444 15.1465 18.1866L14.4713 17.656C13.2849 16.7239 12.6917 16.2578 12 16.2578C11.3083 16.2578 10.7151 16.7239 9.52871 17.656L8.85346 18.1866C6.74355 19.8444 5.68859 20.6733 4.84429 20.2629C4 19.8525 4 18.5109 4 15.8276V9Z" stroke="currentColor" stroke-width="2"/></symbol>
 <symbol id="icon-book-mark-fill" viewBox="0 0 24 24"><path d="M4 9C4 6.17157 4 4.75736 4.87868 3.87868C5.75736 3 7.17157 3 10 3H14C16.8284 3 18.2426 3 19.1213 3.87868C20 4.75736 20 6.17157 20 9V15.8276C20 18.5109 20 19.8525 19.1557 20.2629C18.3114 20.6733 17.2565 19.8444 15.1465 18.1866L14.4713 17.656C13.2849 16.7239 12.6917 16.2578 12 16.2578C11.3083 16.2578 10.7151 16.7239 9.52871 17.656L8.85346 18.1866C6.74355 19.8444 5.68859 20.6733 4.84429 20.2629C4 19.8525 4 18.5109 4 15.8276V9Z" fill="#96E4FF" stroke="#96E4FF" stroke-width="2"/></symbol>
 <symbol id="icon-edit"  viewBox="0 0 24 24" ><path fill-rule="evenodd" clip-rule="evenodd" d="M17.204 10.7959L19 8.99994C19.5453 8.45469 19.8179 8.18207 19.9636 7.88797C20.2409 7.32842 20.2409 6.67146 19.9636 6.11191C19.8179 5.81782 19.5453 5.54519 19 4.99994C18.4548 4.45469 18.1821 4.18207 17.888 4.03633C17.3285 3.75905 16.6715 3.75905 16.112 4.03633C15.8179 4.18207 15.5453 4.45469 15 4.99994L13.1814 6.8186C14.1452 8.4692 15.5314 9.84476 17.204 10.7959ZM11.7269 8.27305L4.8564 15.1436C4.43134 15.5686 4.21881 15.7812 4.07907 16.0422C3.93934 16.3033 3.88039 16.5981 3.7625 17.1875L3.1471 20.2645C3.08058 20.5971 3.04732 20.7634 3.14193 20.858C3.23654 20.9526 3.40284 20.9194 3.73545 20.8529L6.81243 20.2375C7.40189 20.1196 7.69661 20.0606 7.95771 19.9209C8.21881 19.7812 8.43134 19.5686 8.8564 19.1436L15.7458 12.2542C14.1241 11.2385 12.7524 9.87622 11.7269 8.27305Z" /></symbol>
 <symbol id="icon-pin-fill" viewBox="0 0 24 24"><path fill-rule="evenodd" clip-rule="evenodd" d="M12.398 19.804C13.881 19.0348 19 16.0163 19 11C19 7.13401 15.866 4 12 4C8.13401 4 5 7.13401 5 11C5 16.0163 10.119 19.0348 11.602 19.804C11.8548 19.9351 12.1452 19.9351 12.398 19.804ZM12 14C13.6569 14 15 12.6569 15 11C15 9.34315 13.6569 8 12 8C10.3431 8 9 9.34315 9 11C9 12.6569 10.3431 14 12 14Z"/></symbol>
 <symbol id="icon-bag" viewBox="0 0 24 24" fill="none"><path d="M8 8L8 7C8 4.79086 9.79086 3 12 3V3C14.2091 3 16 4.79086 16 7L16 8"  stroke-width="2" stroke-linecap="round"/><path d="M15 14V12"  stroke-width="2" stroke-linecap="round"/><path d="M9 14V12" stroke-width="2" stroke-linecap="round"/><path d="M4 12C4 10.1144 4 9.17157 4.58579 8.58579C5.17157 8 6.11438 8 8 8H16C17.8856 8 18.8284 8 19.4142 8.58579C20 9.17157 20 10.1144 20 12V13C20 16.7712 20 18.6569 18.8284 19.8284C17.6569 21 15.7712 21 12 21V21C8.22876 21 6.34315 21 5.17157 19.8284C4 18.6569 4 16.7712 4 13V12Z"  stroke-width="2"/></symbol>
 <symbol id="icon-package" viewBox="0 -960 960 960" ><path d="m400-570 80-40 80 40v-190H400v190ZM280-280v-80h200v80H280Zm-80 160q-33 0-56.5-23.5T120-200v-560q0-33 23.5-56.5T200-840h560q33 0 56.5 23.5T840-760v560q0 33-23.5 56.5T760-120H200Zm0-640v560-560Zm0 560h560v-560H640v320l-160-80-160 80v-320H200v560Z"/></symbol>
<symbol id="icon-arrow-back" viewBox="0 -960 960 960"><path d="M400-80 0-480l400-400 71 71-329 329 329 329-71 71Z"/></symbol>
<symbol id="icon-message-send" viewBox="0 0 24 24" ><path fill-rule="evenodd" clip-rule="evenodd" d="M9.93929 12.6464L7.69205 11.8973L7.69205 11.8973L7.69204 11.8973C5.33883 11.1129 4.16223 10.7207 4.16223 9.99997C4.16223 9.27921 5.33884 8.88701 7.69205 8.10261L16.2052 5.26488C17.861 4.71295 18.6889 4.43699 19.1259 4.87401C19.5629 5.31102 19.287 6.13892 18.735 7.79471L15.8973 16.3079L15.8973 16.3079L15.8973 16.3079C15.1129 18.6611 14.7207 19.8377 14 19.8377C13.2792 19.8377 12.887 18.6611 12.1026 16.3079L11.3535 14.0606L15.7071 9.70708C16.0976 9.31656 16.0976 8.68339 15.7071 8.29287C15.3165 7.90234 14.6834 7.90234 14.2928 8.29287L9.93929 12.6464Z"/></symbol>
<symbol id="icon-download" viewBox="0 -960 960 960"><path d="M480-320 280-520l56-58 104 104v-326h80v326l104-104 56 58-200 200ZM240-160q-33 0-56.5-23.5T160-240v-120h80v120h480v-120h80v120q0 33-23.5 56.5T720-160H240Z"/></symbol>
<symbol id="icon-search" viewBox="0 0 24 24"><circle cx="11" cy="11" r="7" stroke-width="2"/><path d="M20 20L17 17"  stroke-width="2" stroke-linecap="round"/></symbol>
<symbol id="icon-calendar" viewBox="0 0 24 24" fill="none"><rect x="3" y="6" width="18" height="15" rx="2"  stroke-width="2"/><path d="M3 10C3 8.11438 3 7.17157 3.58579 6.58579C4.17157 6 5.11438 6 7 6H17C18.8856 6 19.8284 6 20.4142 6.58579C21 7.17157 21 8.11438 21 10H3Z"/><path d="M7 3L7 6"  stroke-width="2" stroke-linecap="round"/><path d="M17 3L17 6"  stroke-width="2" stroke-linecap="round"/></symbol>
<symbol id="icon-info" viewBox="0 0 24 24" ><circle cx="12" cy="12" r="9" stroke-width="2"/><path d="M12.5 7.5C12.5 7.77614 12.2761 8 12 8C11.7239 8 11.5 7.77614 11.5 7.5C11.5 7.22386 11.7239 7 12 7C12.2761 7 12.5 7.22386 12.5 7.5Z" fill="#33363F"/><path d="M12 17V10"  stroke-width="2"/></symbol>
<symbol id="icon-close-square" viewBox="0 0 24 24"><path d="M18 6L6 18" stroke-width="2" stroke-linecap="square" stroke-linejoin="round"/><path d="M6 6L18 18"  stroke-width="2" stroke-linecap="square" stroke-linejoin="round"/></symbol>
<symbol id="icon-close-ring" viewBox="0 0 24 24"><path d="M12 21C10.8181 21 9.64778 20.7672 8.55585 20.3149C7.46392 19.8626 6.47177 19.1997 5.63604 18.364C4.80031 17.5282 4.13738 16.5361 3.68508 15.4442C3.23279 14.3522 3 13.1819 3 12C3 10.8181 3.23279 9.64778 3.68508 8.55585C4.13738 7.46392 4.80031 6.47177 5.63604 5.63604C6.47177 4.80031 7.46392 4.13738 8.55585 3.68508C9.64778 3.23279 10.8181 3 12 3C13.1819 3 14.3522 3.23279 15.4442 3.68508C16.5361 4.13738 17.5282 4.80031 18.364 5.63604C19.1997 6.47177 19.8626 7.46392 20.3149 8.55585C20.7672 9.64778 21 10.8181 21 12C21 13.1819 20.7672 14.3522 20.3149 15.4442C19.8626 16.5361 19.1997 17.5282 18.364 18.364C17.5282 19.1997 16.5361 19.8626 15.4441 20.3149C14.3522 20.7672 13.1819 21 12 21L12 21Z" stroke-width="2" stroke-linecap="round"/><path d="M9 9L15 15"  stroke-width="2" stroke-linecap="round"/><path d="M15 9L9 15"  stroke-width="2" stroke-linecap="round"/></symbol>
<symbol id="icon-image-box" viewBox="0 0 24 24"><path d="M3 11C3 7.22876 3 5.34315 4.17157 4.17157C5.34315 3 7.22876 3 11 3H13C16.7712 3 18.6569 3 19.8284 4.17157C21 5.34315 21 7.22876 21 11V13C21 16.7712 21 18.6569 19.8284 19.8284C18.6569 21 16.7712 21 13 21H11C7.22876 21 5.34315 21 4.17157 19.8284C3 18.6569 3 16.7712 3 13V11Z"  stroke-width="2"/><path fill-rule="evenodd" clip-rule="evenodd" d="M18.9997 13.5854L18.9794 13.5651C18.5898 13.1754 18.2537 12.8393 17.9536 12.5864C17.6367 12.3193 17.2917 12.0845 16.8665 11.9562C16.3014 11.7857 15.6986 11.7857 15.1335 11.9562C14.7083 12.0845 14.3633 12.3193 14.0464 12.5864C13.7463 12.8393 13.4102 13.1754 13.0206 13.5651L12.9921 13.5936C12.6852 13.9004 12.5046 14.0795 12.3645 14.1954L12.3443 14.2118L12.3317 14.1891C12.2447 14.0295 12.1435 13.7961 11.9726 13.3972L11.9191 13.2726L11.8971 13.2211L11.897 13.221C11.5411 12.3904 11.2422 11.693 10.9464 11.1673C10.6416 10.6257 10.2618 10.1178 9.66982 9.82106C9.17604 9.57352 8.6235 9.46711 8.07311 9.51356C7.41323 9.56924 6.87197 9.89977 6.38783 10.2894C5.98249 10.6157 5.52754 11.0598 5 11.5859V12.9999C5 13.5166 5.0003 13.9848 5.00308 14.411L6.117 13.2971C6.80615 12.6079 7.26639 12.1497 7.64186 11.8475C8.01276 11.5489 8.17233 11.5123 8.24128 11.5065C8.42475 11.491 8.60893 11.5265 8.77352 11.609C8.83539 11.64 8.96994 11.7333 9.20344 12.1482C9.43981 12.5682 9.69693 13.1646 10.0809 14.0605L10.1343 14.1851L10.1506 14.2232C10.2995 14.5707 10.4378 14.8936 10.5759 15.1468C10.7206 15.412 10.9308 15.7299 11.2847 15.9489C11.702 16.2072 12.1997 16.3031 12.6831 16.2182C13.093 16.1463 13.4062 15.9292 13.6391 15.7367C13.8613 15.5529 14.1096 15.3045 14.3769 15.0371L14.377 15.0371L14.4063 15.0078C14.8325 14.5816 15.1083 14.307 15.3353 14.1157C15.5526 13.9325 15.6552 13.8878 15.7112 13.8709C15.8995 13.8141 16.1005 13.8141 16.2888 13.8709C16.3448 13.8878 16.4474 13.9325 16.6647 14.1157C16.8917 14.307 17.1675 14.5816 17.5937 15.0078L18.9441 16.3582C18.9902 15.6404 18.9983 14.7479 18.9997 13.5854Z" fill="currentColor"/><circle cx="16.5" cy="7.5" r="1.5" fill="currentColor"/></symbol>
<symbol id="icon-settings" viewBox="0 -960 960 960"><path d="m370-80-16-128q-13-5-24.5-12T307-235l-119 50L78-375l103-78q-1-7-1-13.5v-27q0-6.5 1-13.5L78-585l110-190 119 50q11-8 23-15t24-12l16-128h220l16 128q13 5 24.5 12t22.5 15l119-50 110 190-103 78q1 7 1 13.5v27q0 6.5-2 13.5l103 78-110 190-118-50q-11 8-23 15t-24 12L590-80H370Zm70-80h79l14-106q31-8 57.5-23.5T639-327l99 41 39-68-86-65q5-14 7-29.5t2-31.5q0-16-2-31.5t-7-29.5l86-65-39-68-99 42q-22-23-48.5-38.5T533-694l-13-106h-79l-14 106q-31 8-57.5 23.5T321-633l-99-41-39 68 86 64q-5 15-7 30t-2 32q0 16 2 31t7 30l-86 65 39 68 99-42q22 23 48.5 38.5T427-266l13 106Zm42-180q58 0 99-41t41-99q0-58-41-99t-99-41q-59 0-99.5 41T342-480q0 58 40.5 99t99.5 41Zm-2-140Z"/></symbol>
<symbol id="icon-settings_fill" viewBox="0 0 24 24"><path fill-rule="evenodd" clip-rule="evenodd" d="M13.9838 2.54161C14.0711 2.71093 14.0928 2.92777 14.1361 3.36144C14.2182 4.1823 14.2593 4.59274 14.4311 4.81793C14.649 5.10358 15.0034 5.25038 15.3595 5.20248C15.6402 5.16472 15.9594 4.90352 16.5979 4.38113C16.9352 4.10515 17.1038 3.96716 17.2853 3.90918C17.5158 3.83555 17.7652 3.84798 17.9872 3.94419C18.162 4.01994 18.3161 4.17402 18.6243 4.4822L19.5178 5.37567C19.8259 5.68385 19.98 5.83794 20.0558 6.01275C20.152 6.23478 20.1644 6.48415 20.0908 6.71464C20.0328 6.89612 19.8948 7.06478 19.6188 7.4021C19.0964 8.0406 18.8352 8.35984 18.7975 8.64056C18.7496 8.99662 18.8964 9.35102 19.182 9.56893C19.4072 9.74072 19.8176 9.78176 20.6385 9.86385C21.0722 9.90722 21.2891 9.92891 21.4584 10.0162C21.6734 10.1272 21.841 10.3123 21.9299 10.5373C22 10.7145 22 10.9324 22 11.3682V12.6319C22 13.0676 22 13.2855 21.93 13.4626C21.841 13.6877 21.6734 13.8729 21.4583 13.9838C21.289 14.0711 21.0722 14.0928 20.6386 14.1361L20.6386 14.1361C19.818 14.2182 19.4077 14.2592 19.1825 14.4309C18.8967 14.6489 18.7499 15.0034 18.7979 15.3596C18.8357 15.6402 19.0968 15.9593 19.619 16.5976C19.8949 16.9348 20.0328 17.1034 20.0908 17.2848C20.1645 17.5154 20.152 17.7648 20.0558 17.9869C19.98 18.1617 19.826 18.3157 19.5179 18.6238L18.6243 19.5174C18.3162 19.8255 18.1621 19.9796 17.9873 20.0554C17.7652 20.1516 17.5159 20.164 17.2854 20.0904C17.1039 20.0324 16.9352 19.8944 16.5979 19.6184L16.5979 19.6184C15.9594 19.096 15.6402 18.8348 15.3595 18.7971C15.0034 18.7492 14.649 18.896 14.4311 19.1816C14.2593 19.4068 14.2183 19.8173 14.1362 20.6383C14.0928 21.0722 14.0711 21.2891 13.9837 21.4585C13.8728 21.6735 13.6877 21.8409 13.4628 21.9299C13.2856 22 13.0676 22 12.6316 22H11.3682C10.9324 22 10.7145 22 10.5373 21.9299C10.3123 21.841 10.1272 21.6734 10.0162 21.4584C9.92891 21.2891 9.90722 21.0722 9.86385 20.6385C9.78176 19.8176 9.74072 19.4072 9.56892 19.182C9.35101 18.8964 8.99663 18.7496 8.64057 18.7975C8.35985 18.8352 8.04059 19.0964 7.40208 19.6189L7.40206 19.6189C7.06473 19.8949 6.89607 20.0329 6.71458 20.0908C6.4841 20.1645 6.23474 20.152 6.01272 20.0558C5.8379 19.9801 5.6838 19.826 5.37561 19.5178L4.48217 18.6243C4.17398 18.3162 4.01988 18.1621 3.94414 17.9873C3.84794 17.7652 3.8355 17.5159 3.90913 17.2854C3.96711 17.1039 4.10511 16.9352 4.3811 16.5979C4.90351 15.9594 5.16471 15.6402 5.20247 15.3594C5.25037 15.0034 5.10357 14.649 4.81792 14.4311C4.59273 14.2593 4.1823 14.2182 3.36143 14.1361C2.92776 14.0928 2.71093 14.0711 2.54161 13.9838C2.32656 13.8728 2.15902 13.6877 2.07005 13.4627C2 13.2855 2 13.0676 2 12.6318V11.3683C2 10.9324 2 10.7144 2.07008 10.5372C2.15905 10.3123 2.32654 10.1272 2.54152 10.0163C2.71088 9.92891 2.92777 9.90722 3.36155 9.86384H3.36155H3.36156C4.18264 9.78173 4.59319 9.74068 4.81842 9.56881C5.10395 9.35092 5.2507 8.99664 5.20287 8.64066C5.16514 8.35987 4.90385 8.04052 4.38128 7.40182C4.10516 7.06435 3.96711 6.89561 3.90914 6.71405C3.83557 6.48364 3.848 6.23438 3.94413 6.01243C4.01988 5.83754 4.17403 5.68339 4.48233 5.37509L5.37565 4.48177L5.37566 4.48177C5.68385 4.17357 5.83795 4.01947 6.01277 3.94373C6.23478 3.84753 6.48414 3.8351 6.71463 3.90872C6.89612 3.9667 7.06481 4.10472 7.4022 4.38076C8.04061 4.9031 8.35982 5.16427 8.64044 5.20207C8.99661 5.25003 9.35113 5.10319 9.56907 4.81742C9.74077 4.59227 9.78181 4.18195 9.86387 3.36131C9.90722 2.92776 9.9289 2.71098 10.0162 2.5417C10.1271 2.32658 10.3123 2.15898 10.5374 2.07001C10.7145 2 10.9324 2 11.3681 2H12.6318C13.0676 2 13.2855 2 13.4627 2.07005C13.6877 2.15902 13.8728 2.32656 13.9838 2.54161ZM12 16C14.2091 16 16 14.2091 16 12C16 9.79086 14.2091 8 12 8C9.79086 8 8 9.79086 8 12C8 14.2091 9.79086 16 12 16Z"/></symbol>
<symbol id="icon-local-fire" viewBox="0 -960 960 960"><path d="M240-400q0 52 21 98.5t60 81.5q-1-5-1-9v-9q0-32 12-60t35-51l113-111 113 111q23 23 35 51t12 60v9q0 4-1 9 39-35 60-81.5t21-98.5q0-50-18.5-94.5T648-574q-20 13-42 19.5t-45 6.5q-62 0-107.5-41T401-690q-39 33-69 68.5t-50.5 72Q261-513 250.5-475T240-400Zm240 52-57 56q-11 11-17 25t-6 29q0 32 23.5 55t56.5 23q33 0 56.5-23t23.5-55q0-16-6-29.5T537-292l-57-56Zm0-492v132q0 34 23.5 57t57.5 23q18 0 33.5-7.5T622-658l18-22q74 42 117 117t43 163q0 134-93 227T480-80q-134 0-227-93t-93-227q0-129 86.5-245T480-840Z"/></symbol>
<symbol id="icon-fire-fill" viewBox="0 0 24 24"><path d="M9.5 10.0003C9.5 9.20875 8.44722 8.99895 8.16791 9.73957C7.49228 11.5311 7 13.1337 7 14.0002C7 16.7616 9.23858 19.0002 12 19.0002C14.7614 19.0002 17 16.7616 17 14.0002C17 13.0693 16.4318 11.2887 15.6784 9.33698C14.7026 6.80879 14.2146 5.54469 13.6123 5.4766C13.4196 5.45482 13.2093 5.49399 13.0374 5.58371C12.5 5.86413 12.5 7.24285 12.5 10.0003C12.5 10.8287 11.8284 11.5003 11 11.5003C10.1716 11.5003 9.5 10.8287 9.5 10.0003Z"/></symbol>

<symbol id="icon-gavel" viewBox="0 -960 960 960"><path d="M160-120v-80h480v80H160Zm226-194L160-540l84-86 228 226-86 86Zm254-254L414-796l86-84 226 226-86 86Zm184 408L302-682l56-56 522 522-56 56Z"/></symbol>
<symbol id="icon-chat"  viewBox="0 0 24 24" ><path d="M19.3259 5.77772L18.4944 6.33329L18.4944 6.33329L19.3259 5.77772ZM19.3259 16.2223L18.4944 15.6667L18.4944 15.6667L19.3259 16.2223ZM18.2223 17.3259L17.6667 16.4944L17.6667 16.4944L18.2223 17.3259ZM14 17.9986L13.9956 16.9986C13.4451 17.001 13 17.4481 13 17.9986H14ZM14 18L14.8944 18.4472C14.9639 18.3084 15 18.1552 15 18H14ZM10 18H9C9 18.1552 9.03615 18.3084 9.10557 18.4472L10 18ZM10 17.9986H11C11 17.4481 10.5549 17.001 10.0044 16.9986L10 17.9986ZM5.77772 17.3259L6.33329 16.4944L6.33329 16.4944L5.77772 17.3259ZM4.67412 16.2223L5.50559 15.6667L5.50559 15.6667L4.67412 16.2223ZM4.67412 5.77772L5.50559 6.33329L5.50559 6.33329L4.67412 5.77772ZM5.77772 4.67412L6.33329 5.50559L6.33329 5.50559L5.77772 4.67412ZM18.2223 4.67412L17.6667 5.50559L17.6667 5.50559L18.2223 4.67412ZM21 11C21 9.61635 21.0012 8.50334 20.9106 7.61264C20.8183 6.70523 20.6225 5.91829 20.1573 5.22215L18.4944 6.33329C18.7034 6.64604 18.8446 7.06578 18.9209 7.81505C18.9988 8.58104 19 9.57473 19 11H21ZM20.1573 16.7779C20.6225 16.0817 20.8183 15.2948 20.9106 14.3874C21.0012 13.4967 21 12.3836 21 11H19C19 12.4253 18.9988 13.419 18.9209 14.1849C18.8446 14.9342 18.7034 15.354 18.4944 15.6667L20.1573 16.7779ZM18.7779 18.1573C19.3238 17.7926 19.7926 17.3238 20.1573 16.7779L18.4944 15.6667C18.2755 15.9943 17.9943 16.2755 17.6667 16.4944L18.7779 18.1573ZM14.0044 18.9986C15.0785 18.9939 15.9763 18.9739 16.7267 18.8701C17.4931 18.7642 18.1699 18.5636 18.7779 18.1573L17.6667 16.4944C17.3934 16.6771 17.0378 16.8081 16.4528 16.889C15.8518 16.9721 15.0792 16.9939 13.9956 16.9986L14.0044 18.9986ZM15 18V17.9986H13V18H15ZM13.7889 20.6584L14.8944 18.4472L13.1056 17.5528L12 19.7639L13.7889 20.6584ZM10.2111 20.6584C10.9482 22.1325 13.0518 22.1325 13.7889 20.6584L12 19.7639L12 19.7639L10.2111 20.6584ZM9.10557 18.4472L10.2111 20.6584L12 19.7639L10.8944 17.5528L9.10557 18.4472ZM9 17.9986V18H11V17.9986H9ZM5.22215 18.1573C5.83014 18.5636 6.50685 18.7642 7.2733 18.8701C8.02368 18.9739 8.92154 18.9939 9.99564 18.9986L10.0044 16.9986C8.92075 16.9939 8.14815 16.9721 7.54716 16.889C6.96223 16.8081 6.60665 16.6771 6.33329 16.4944L5.22215 18.1573ZM3.84265 16.7779C4.20744 17.3238 4.6762 17.7926 5.22215 18.1573L6.33329 16.4944C6.00572 16.2755 5.72447 15.9943 5.50559 15.6667L3.84265 16.7779ZM3 11C3 12.3836 2.99879 13.4967 3.0894 14.3874C3.18171 15.2948 3.3775 16.0817 3.84265 16.7779L5.50559 15.6667C5.29662 15.354 5.15535 14.9342 5.07913 14.1849C5.00121 13.419 5 12.4253 5 11H3ZM3.84265 5.22215C3.3775 5.91829 3.18171 6.70523 3.0894 7.61264C2.99879 8.50334 3 9.61635 3 11H5C5 9.57473 5.00121 8.58104 5.07913 7.81505C5.15535 7.06578 5.29662 6.64604 5.50559 6.33329L3.84265 5.22215ZM5.22215 3.84265C4.6762 4.20744 4.20744 4.6762 3.84265 5.22215L5.50559 6.33329C5.72447 6.00572 6.00572 5.72447 6.33329 5.50559L5.22215 3.84265ZM11 3C9.61635 3 8.50334 2.99879 7.61264 3.0894C6.70523 3.18171 5.91829 3.3775 5.22215 3.84265L6.33329 5.50559C6.64604 5.29662 7.06578 5.15535 7.81505 5.07913C8.58104 5.00121 9.57473 5 11 5V3ZM13 3H11V5H13V3ZM18.7779 3.84265C18.0817 3.3775 17.2948 3.18171 16.3874 3.0894C15.4967 2.99879 14.3836 3 13 3V5C14.4253 5 15.419 5.00121 16.1849 5.07913C16.9342 5.15535 17.354 5.29662 17.6667 5.50559L18.7779 3.84265ZM20.1573 5.22215C19.7926 4.6762 19.3238 4.20744 18.7779 3.84265L17.6667 5.50559C17.9943 5.72447 18.2755 6.00572 18.4944 6.33329L20.1573 5.22215Z" fill="currentColor"/><circle cx="16" cy="11" r="1" fill="currentColor" stroke="currentColor" stroke-linecap="round"/><circle cx="12" cy="11" r="1" fill="currentColor" stroke="currentColor" stroke-linecap="round"/><circle cx="8" cy="11" r="1" fill="currentColor" stroke="currentColor" stroke-linecap="round"/></symbol>
<symbol id="icon-more-horiz" viewBox="0 -960 960 960"><path d="M240-400q-33 0-56.5-23.5T160-480q0-33 23.5-56.5T240-560q33 0 56.5 23.5T320-480q0 33-23.5 56.5T240-400Zm240 0q-33 0-56.5-23.5T400-480q0-33 23.5-56.5T480-560q33 0 56.5 23.5T560-480q0 33-23.5 56.5T480-400Zm240 0q-33 0-56.5-23.5T640-480q0-33 23.5-56.5T720-560q33 0 56.5 23.5T800-480q0 33-23.5 56.5T720-400Z"/></symbol>
<symbol id="icon-chat-comment" viewBox="0 0 24 24" ><path d="M18.4701 16.83L18.8601 19.99C18.9601 20.82 18.0701 21.4 17.3601 20.97L13.1701 18.48C12.7101 18.48 12.2601 18.45 11.8201 18.39C12.5601 17.52 13.0001 16.42 13.0001 15.23C13.0001 12.39 10.5401 10.09 7.50009 10.09C6.34009 10.09 5.2701 10.42 4.3801 11C4.3501 10.75 4.34009 10.5 4.34009 10.24C4.34009 5.68999 8.29009 2 13.1701 2C18.0501 2 22.0001 5.68999 22.0001 10.24C22.0001 12.94 20.6101 15.33 18.4701 16.83Z" stroke="currentColor" stroke-opacity="0.88" stroke-width="1.5" stroke-linecap="round" stroke-linejoin="round"/><path d="M13 15.23C13 16.42 12.56 17.52 11.82 18.39C10.83 19.59 9.26 20.36 7.5 20.36L4.89 21.91C4.45 22.18 3.89 21.81 3.95 21.3L4.2 19.33C2.86 18.4 2 16.91 2 15.23C2 13.47 2.94 11.92 4.38 11C5.27 10.42 6.34 10.09 7.5 10.09C10.54 10.09 13 12.39 13 15.23Z" stroke="currentColor" stroke-opacity="0.88" stroke-width="1.5" stroke-linecap="round" stroke-linejoin="round"/></symbol>
<symbol id="icon-time" viewBox="0 0 24 24" ><circle cx="12" cy="12" r="9" stroke="currentColor" stroke-width="2"/>\<path d="M16.5 12H12.25C12.1119 12 12 11.8881 12 11.75V8.5" stroke="currentColor" stroke-width="2" stroke-linecap="round"/></symbol>
<symbol id="icon-home" viewBox="0 0 24 24" ><path d="M5 12.7597C5 11.4019 5 10.723 5.27446 10.1263C5.54892 9.52956 6.06437 9.08775 7.09525 8.20413L8.09525 7.34699C9.95857 5.74986 10.8902 4.95129 12 4.95129C13.1098 4.95129 14.0414 5.74986 15.9047 7.34699L16.9047 8.20413C17.9356 9.08775 18.4511 9.52956 18.7255 10.1263C19 10.723 19 11.4019 19 12.7597V17.0001C19 18.8857 19 19.8285 18.4142 20.4143C17.8284 21.0001 16.8856 21.0001 15 21.0001H9C7.11438 21.0001 6.17157 21.0001 5.58579 20.4143C5 19.8285 5 18.8857 5 17.0001V12.7597Z" stroke="currentColor" stroke-width="2"/><path d="M14.5 21V16C14.5 15.4477 14.0523 15 13.5 15H10.5C9.94772 15 9.5 15.4477 9.5 16V21" stroke="currentColor" stroke-width="2" stroke-linecap="round" stroke-linejoin="round"/></symbol>
<symbol id="icon-check" viewBox="0 -960 960 960"><path d="m424-296 282-282-56-56-226 226-114-114-56 56 170 170Zm56 216q-83 0-156-31.5T197-197q-54-54-85.5-127T80-480q0-83 31.5-156T197-763q54-54 127-85.5T480-880q83 0 156 31.5T763-763q54 54 85.5 127T880-480q0 83-31.5 156T763-197q-54 54-127 85.5T480-80Zm0-80q134 0 227-93t93-227q0-134-93-227t-227-93q-134 0-227 93t-93 227q0 134 93 227t227 93Zm0-320Z"/></symbol>
<symbol id="icon-warning" viewBox="0 0 24 24"><path d="M9.14939 7.8313C8.57654 5.92179 10.0064 4 12 4V4C13.9936 4 15.4235 5.92179 14.8506 7.8313L13.2873 13.0422C13.2171 13.2762 13.182 13.3932 13.128 13.4895C12.989 13.7371 12.7513 13.9139 12.4743 13.9759C12.3664 14 12.2443 14 12 14V14C11.7557 14 11.6336 14 11.5257 13.9759C11.2487 13.9139 11.011 13.7371 10.872 13.4895C10.818 13.3932 10.7829 13.2762 10.7127 13.0422L9.14939 7.8313Z" stroke="currentColor" stroke-width="2"/><circle cx="12" cy="19" r="2" stroke="currentColor" stroke-width="2"/></symbol>
<symbol id="icon-bell-fill"  viewBox="0 0 24 24"><path d="M6.50248 6.97519C6.78492 4.15083 9.16156 2 12 2V2C14.8384 2 17.2151 4.15083 17.4975 6.97519L17.7841 9.84133C17.8016 10.0156 17.8103 10.1028 17.8207 10.1886C17.9649 11.3717 18.3717 12.5077 19.0113 13.5135C19.0576 13.5865 19.1062 13.6593 19.2034 13.8051L20.0645 15.0968C20.8508 16.2763 21.244 16.866 21.0715 17.3412C21.0388 17.4311 20.9935 17.5158 20.9368 17.5928C20.6371 18 19.9283 18 18.5108 18H5.48923C4.07168 18 3.36291 18 3.06318 17.5928C3.00651 17.5158 2.96117 17.4311 2.92854 17.3412C2.75601 16.866 3.14916 16.2763 3.93548 15.0968L4.79661 13.8051C4.89378 13.6593 4.94236 13.5865 4.98873 13.5135C5.62832 12.5077 6.03508 11.3717 6.17927 10.1886C6.18972 10.1028 6.19844 10.0156 6.21587 9.84133L6.50248 6.97519Z" fill="currentColor"/><path d="M10.0681 20.6294C10.1821 20.7357 10.4332 20.8297 10.7825 20.8967C11.1318 20.9637 11.5597 21 12 21C12.4403 21 12.8682 20.9637 13.2175 20.8967C13.5668 20.8297 13.8179 20.7357 13.9319 20.6294" stroke="currentColor" stroke-width="2" stroke-linecap="round"/></symbol>
<symbol id="icon-bell"  viewBox="0 0 24 24"><path d="M6.44784 7.96942C6.76219 5.14032 9.15349 3 12 3V3C14.8465 3 17.2378 5.14032 17.5522 7.96942L17.804 10.2356C17.8072 10.2645 17.8088 10.279 17.8104 10.2933C17.9394 11.4169 18.3051 12.5005 18.8836 13.4725C18.8909 13.4849 18.8984 13.4973 18.9133 13.5222L19.4914 14.4856C20.0159 15.3599 20.2782 15.797 20.2216 16.1559C20.1839 16.3946 20.061 16.6117 19.8757 16.7668C19.5971 17 19.0873 17 18.0678 17H5.93223C4.91268 17 4.40291 17 4.12434 16.7668C3.93897 16.6117 3.81609 16.3946 3.77841 16.1559C3.72179 15.797 3.98407 15.3599 4.50862 14.4856L5.08665 13.5222C5.10161 13.4973 5.10909 13.4849 5.11644 13.4725C5.69488 12.5005 6.06064 11.4169 6.18959 10.2933C6.19123 10.279 6.19283 10.2645 6.19604 10.2356L6.44784 7.96942Z" stroke="currentColor" stroke-width="2"/><path d="M8 17C8 17.5253 8.10346 18.0454 8.30448 18.5307C8.5055 19.016 8.80014 19.457 9.17157 19.8284C9.54301 20.1999 9.98396 20.4945 10.4693 20.6955C10.9546 20.8965 11.4747 21 12 21C12.5253 21 13.0454 20.8965 13.5307 20.6955C14.016 20.4945 14.457 20.1999 14.8284 19.8284C15.1999 19.457 15.4945 19.016 15.6955 18.5307C15.8965 18.0454 16 17.5253 16 17" stroke="currentColor" stroke-width="2" stroke-linecap="round"/></symbol>
<symbol id="icon-info-solid" viewBox="0 -960 960 960"><path d="M480-680q-33 0-56.5-23.5T400-760q0-33 23.5-56.5T480-840q33 0 56.5 23.5T560-760q0 33-23.5 56.5T480-680Zm0 560q-25 0-42.5-17.5T420-180v-360q0-25 17.5-42.5T480-600q25 0 42.5 17.5T540-540v360q0 25-17.5 42.5T480-120Z"/></symbol>
<symbol id="icon-warn-solid" viewBox="0 -960 960 960"><path d="M480-120q-33 0-56.5-23.5T400-200q0-33 23.5-56.5T480-280q33 0 56.5 23.5T560-200q0 33-23.5 56.5T480-120Zm0-240q-33 0-56.5-23.5T400-440v-320q0-33 23.5-56.5T480-840q33 0 56.5 23.5T560-760v320q0 33-23.5 56.5T480-360Z"/></symbol>
<symbol id="icon-check-solid" viewBox="0 -960 960 960"><path d="m382-354 339-339q12-12 28.5-12t28.5 12q12 12 12 28.5T778-636L410-268q-12 12-28 12t-28-12L182-440q-12-12-11.5-28.5T183-497q12-12 28.5-12t28.5 12l142 143Z"/></symbol>
<symbol id="icon-box-add" viewBox="0 -960 960 960"><path d="M200-640h338-18 14-334Zm440 0h120-120Zm-424-80h528l-34-40H250l-34 40Zm184 270 80-40 80 40v-190H400v190Zm182 330H200q-33 0-56.5-23.5T120-200v-499q0-14 4.5-27t13.5-24l50-61q11-14 27.5-21.5T250-840h460q18 0 34.5 7.5T772-811l50 61q9 11 13.5 24t4.5 27v196q-19-7-39-11t-41-4v-122H640v153q-35 20-61 49.5T538-371l-58-29-102 51q-20 10-39-1.5T320-385v-255H200v440h334q8 23 20 43t28 37Zm178 0q-17 0-28.5-11.5T720-160v-80h-80q-17 0-28.5-11.5T600-280q0-17 11.5-28.5T640-320h80v-80q0-17 11.5-28.5T760-440q17 0 28.5 11.5T800-400v80h80q17 0 28.5 11.5T920-280q0 17-11.5 28.5T880-240h-80v80q0 17-11.5 28.5T760-120ZM200-640h338-18 14-334Z"/></symbol>
<symbol id="icon-dark" viewBox="0 0 24 24"><path d="M11.4349 18.9775L11.5145 17.9807L11.4349 18.9775ZM9.7155 18.4863L10.6916 18.2689L9.7155 18.4863ZM11.9404 5.21305L12.504 4.38701L11.9404 5.21305ZM18 12C18 8.68629 15.3137 6 12 6V4C16.4183 4 20 7.58172 20 12H18ZM12 18C15.3137 18 18 15.3137 18 12H20C20 16.4183 16.4183 20 12 20V18ZM11.5145 17.9807C11.6745 17.9935 11.8364 18 12 18V20C11.7832 20 11.5681 19.9913 11.3553 19.9743L11.5145 17.9807ZM10.9659 16.2165C12.7803 15.1824 14 13.2328 14 10.9995H16C16 13.9802 14.3694 16.5788 11.9563 17.9541L10.9659 16.2165ZM14 10.9995C14 8.9392 12.9625 7.12098 11.3768 6.0391L12.504 4.38701C14.6124 5.82557 16 8.25033 16 10.9995H14ZM11.3553 19.9743C10.8456 19.9336 10.3418 19.8963 9.96574 19.8075C9.61825 19.7255 8.91471 19.4907 8.73941 18.7037L10.6916 18.2689C10.6526 18.0937 10.5446 17.9588 10.4407 17.8855C10.3688 17.8349 10.3362 17.84 10.4253 17.861C10.5055 17.88 10.6296 17.8997 10.8226 17.9202C11.0128 17.9405 11.2373 17.9585 11.5145 17.9807L11.3553 19.9743ZM11.9563 17.9541C11.3218 18.3157 10.9313 18.5404 10.6978 18.7137C10.5808 18.8007 10.5782 18.8216 10.6067 18.7803C10.6532 18.7127 10.7477 18.5209 10.6916 18.2689L8.73941 18.7037C8.64314 18.2714 8.78362 17.9012 8.95978 17.6455C9.11779 17.4162 9.32843 17.2395 9.50564 17.1079C9.86069 16.8443 10.3831 16.5487 10.9659 16.2165L11.9563 17.9541ZM12 6C12.4502 6 12.7655 5.67892 12.8566 5.34712C12.9448 5.02566 12.847 4.62098 12.504 4.38701L11.3768 6.0391C10.9398 5.74095 10.8148 5.22975 10.9279 4.8178C11.0438 4.39552 11.436 4 12 4V6Z" fill="currentColor"/><path d="M5.4 10.2L5.4 10.2C5.50137 10.5041 5.55206 10.6562 5.60276 10.7225C5.80288 10.9843 6.19712 10.9843 6.39724 10.7225C6.44794 10.6562 6.49863 10.5041 6.6 10.2L6.6 10.2C6.68177 9.95468 6.72266 9.83201 6.77555 9.72099C6.97291 9.30672 7.30672 8.97291 7.72099 8.77555C7.83201 8.72266 7.95468 8.68177 8.2 8.6L8.2 8.6C8.50412 8.49863 8.65618 8.44794 8.7225 8.39724C8.98431 8.19712 8.98431 7.80288 8.7225 7.60276C8.65618 7.55206 8.50412 7.50137 8.2 7.4L8.2 7.4C7.95468 7.31822 7.83201 7.27734 7.72099 7.22445C7.30672 7.02709 6.97291 6.69329 6.77555 6.27901C6.72266 6.16799 6.68177 6.04532 6.6 5.8C6.49863 5.49588 6.44794 5.34382 6.39724 5.2775C6.19712 5.01569 5.80288 5.01569 5.60276 5.2775C5.55206 5.34382 5.50137 5.49588 5.4 5.8C5.31823 6.04532 5.27734 6.16799 5.22445 6.27901C5.02709 6.69329 4.69329 7.02709 4.27901 7.22445C4.16799 7.27734 4.04532 7.31823 3.8 7.4C3.49588 7.50137 3.34382 7.55206 3.2775 7.60276C3.01569 7.80288 3.01569 8.19712 3.2775 8.39724C3.34382 8.44794 3.49588 8.49863 3.8 8.6C4.04532 8.68177 4.16799 8.72266 4.27901 8.77555C4.69329 8.97291 5.02709 9.30672 5.22445 9.72099C5.27734 9.83201 5.31822 9.95468 5.4 10.2Z" stroke="currentColor" stroke-width="2"/></symbol>
<symbol id="icon-light" viewBox="0 0 24 24"><circle cx="12" cy="12" r="3" stroke="currentColor" stroke-width="2"/><path d="M12 5V3" stroke="currentColor" stroke-width="2" stroke-linecap="round"/><path d="M12 21V19" stroke="currentColor" stroke-width="2" stroke-linecap="round"/><path d="M16.9498 7.0502L18.364 5.63599" stroke="currentColor" stroke-width="2" stroke-linecap="round"/><path d="M5.63608 18.3639L7.05029 16.9497" stroke="currentColor" stroke-width="2" stroke-linecap="round"/><path d="M19 12L21 12" stroke="currentColor" stroke-width="2" stroke-linecap="round"/><path d="M3 12L5 12" stroke="currentColor" stroke-width="2" stroke-linecap="round"/><path d="M16.9498 16.9498L18.364 18.364" stroke="currentColor" stroke-width="2" stroke-linecap="round"/><path d="M5.63608 5.63608L7.05029 7.05029" stroke="currentColor" stroke-width="2" stroke-linecap="round"/></symbol>


</svg>

